<?xml version="1.0" encoding="utf-8"?>
<!-- Generator: Adobe Illustrator 24.0.1, SVG Export Plug-In . SVG Version: 6.00 Build 0)  -->
<svg version="1.1" id="Layer_1" xmlns="http://www.w3.org/2000/svg" xmlns:xlink="http://www.w3.org/1999/xlink" x="0px" y="0px"
	 viewBox="0 0 200 200" style="enable-background:new 0 0 200 200;" xml:space="preserve">
<style type="text/css">
	.st0{opacity:0.7;fill:#AF926A;}
	.st1{fill:#FFFFFF;}
	.st2{opacity:0.7;}
	.st3{fill:#AF926A;}
	.st4{fill-rule:evenodd;clip-rule:evenodd;fill:#FFFFFF;}
</style>
<g id="XMLID_1683_">
	<path id="XMLID_1692_" class="st0" d="M99.91,199.19L99.91,199.19C45.28,199.19,1,154.9,1,100.28v0C1,45.65,45.28,1.37,99.91,1.37
		l0,0c54.63,0,98.91,44.28,98.91,98.91v0C198.82,154.9,154.54,199.19,99.91,199.19z"/>
	<g id="XMLID_1684_">
		<path id="XMLID_1689_" class="st1" d="M99.91,55.82c14.48,0,16.2,0.06,21.91,0.32c5.29,0.24,8.16,1.12,10.07,1.87
			c2.53,0.98,4.34,2.16,6.23,4.06c1.9,1.9,3.07,3.7,4.06,6.24c0.74,1.91,1.63,4.78,1.87,10.07c0.26,5.72,0.32,7.43,0.32,21.91
			s-0.06,16.2-0.32,21.91c-0.24,5.29-1.12,8.16-1.87,10.07c-0.98,2.53-2.16,4.34-4.06,6.24c-1.9,1.9-3.7,3.07-6.23,4.06
			c-1.91,0.74-4.78,1.63-10.07,1.87c-5.72,0.26-7.43,0.31-21.91,0.31c-14.48,0-16.2-0.06-21.91-0.31
			c-5.29-0.24-8.16-1.12-10.07-1.87c-2.53-0.98-4.34-2.16-6.24-4.06c-1.9-1.9-3.07-3.7-4.06-6.24c-0.74-1.91-1.63-4.78-1.87-10.07
			c-0.26-5.72-0.31-7.43-0.31-21.91s0.06-16.2,0.31-21.91c0.24-5.29,1.13-8.16,1.87-10.07c0.98-2.53,2.16-4.34,4.06-6.24
			c1.9-1.9,3.7-3.07,6.24-4.06c1.91-0.74,4.78-1.63,10.07-1.87C83.71,55.87,85.43,55.82,99.91,55.82 M99.91,46.05
			c-14.73,0-16.58,0.06-22.36,0.33c-5.77,0.26-9.71,1.18-13.16,2.52c-3.57,1.39-6.59,3.24-9.61,6.26s-4.87,6.04-6.25,9.61
			c-1.34,3.45-2.26,7.39-2.52,13.16c-0.26,5.79-0.33,7.63-0.33,22.36c0,14.73,0.06,16.58,0.33,22.36c0.26,5.77,1.18,9.71,2.52,13.16
			c1.39,3.57,3.24,6.59,6.25,9.61s6.04,4.87,9.61,6.26c3.45,1.34,7.39,2.26,13.16,2.52c5.78,0.26,7.63,0.33,22.36,0.33
			c14.73,0,16.58-0.06,22.36-0.33c5.77-0.26,9.71-1.18,13.16-2.52c3.57-1.39,6.59-3.24,9.61-6.26s4.87-6.04,6.26-9.61
			c1.34-3.45,2.26-7.39,2.52-13.16c0.26-5.78,0.33-7.63,0.33-22.36c0-14.73-0.06-16.58-0.33-22.36c-0.26-5.77-1.18-9.71-2.52-13.16
			c-1.39-3.57-3.24-6.59-6.26-9.61s-6.04-4.87-9.61-6.26c-3.45-1.34-7.39-2.26-13.16-2.52C116.49,46.11,114.64,46.05,99.91,46.05"/>
		<path id="XMLID_1686_" class="st1" d="M99.91,72.43c-15.38,0-27.85,12.47-27.85,27.85c0,15.38,12.47,27.85,27.85,27.85
			c15.38,0,27.85-12.47,27.85-27.85C127.76,84.9,115.29,72.43,99.91,72.43 M99.91,118.36c-9.98,0-18.08-8.09-18.08-18.08
			c0-9.98,8.09-18.08,18.08-18.08s18.08,8.09,18.08,18.08C117.99,110.26,109.89,118.36,99.91,118.36"/>
		<path id="XMLID_1685_" class="st1" d="M135.37,71.33c0,3.59-2.91,6.51-6.51,6.51c-3.6,0-6.51-2.91-6.51-6.51
			c0-3.59,2.91-6.51,6.51-6.51C132.45,64.82,135.37,67.74,135.37,71.33"/>
	</g>
</g>
</svg>
