<?xml version="1.0" encoding="utf-8"?>
<!-- Generator: Adobe Illustrator 24.0.1, SVG Export Plug-In . SVG Version: 6.00 Build 0)  -->
<svg version="1.1" id="Layer_1" xmlns="http://www.w3.org/2000/svg" xmlns:xlink="http://www.w3.org/1999/xlink" x="0px" y="0px"
	 viewBox="0 0 200 200" style="enable-background:new 0 0 200 200;" xml:space="preserve">
<style type="text/css">
	.st0{opacity:0.7;fill:#AF926A;enable-background:new    ;}
	.st1{fill:#FFFFFF;}
	.st2{opacity:0.7;}
	.st3{fill:#AF926A;}
	.st4{fill-rule:evenodd;clip-rule:evenodd;fill:#FFFFFF;}
</style>
<g>
	<g class="st2">
		<g id="XMLID_2_">
			<path id="XMLID_3_" class="st3" d="M100.27,199L100.27,199c-54.63,0-98.91-44.28-98.91-98.91l0,0
				c0-54.63,44.28-98.91,98.91-98.91l0,0c54.63,0,98.91,44.28,98.91,98.91l0,0C199.18,154.72,154.9,199,100.27,199z"/>
		</g>
	</g>
	<g>
		<path class="st1" d="M155.33,142.36H45.22c-2.01,0-3.65-1.63-3.65-3.65v-74.3c0-2.01,1.63-3.65,3.65-3.65h110.11
			c2.01,0,3.65,1.63,3.65,3.65v74.31C158.98,140.73,157.34,142.36,155.33,142.36z M48.86,135.07h102.81V68.05H48.86V135.07z"/>
		<path class="st1" d="M100.27,113c-3.85,0-7.69-1.37-10.76-4.11L42.79,67.13c-1.13-1.01-1.52-2.61-0.98-4.02
			c0.54-1.42,1.9-2.35,3.41-2.35h110.11c1.51,0,2.87,0.93,3.41,2.35c0.54,1.41,0.15,3.01-0.98,4.02l-46.73,41.76
			C107.96,111.63,104.12,113,100.27,113z M54.78,68.05l39.6,35.39c3.36,3,8.43,3.01,11.79,0l0,0l39.6-35.39H54.78z"/>
		<path class="st1" d="M155.33,141.86H45.22c-1.51,0-2.87-0.93-3.41-2.35c-0.54-1.41-0.15-3.01,0.98-4.02L83.8,98.84
			c1.5-1.35,3.81-1.21,5.15,0.29c1.34,1.5,1.21,3.81-0.29,5.15l-33.88,30.28h90.99l-33.88-30.28c-1.5-1.34-1.63-3.65-0.29-5.15
			s3.65-1.63,5.15-0.29l41.01,36.65c1.13,1.01,1.52,2.61,0.98,4.02C158.2,140.93,156.84,141.86,155.33,141.86z"/>
	</g>
</g>
</svg>
