<?xml version="1.0" encoding="utf-8"?>
<!-- Generator: Adobe Illustrator 24.0.1, SVG Export Plug-In . SVG Version: 6.00 Build 0)  -->
<svg version="1.1" id="Layer_1" xmlns="http://www.w3.org/2000/svg" xmlns:xlink="http://www.w3.org/1999/xlink" x="0px" y="0px"
	 viewBox="0 0 200 200" style="enable-background:new 0 0 200 200;" xml:space="preserve">
<style type="text/css">
	.st0{opacity:0.7;fill:#AF926A;enable-background:new    ;}
	.st1{fill:#FFFFFF;}
	.st2{opacity:0.7;}
	.st3{fill:#AF926A;}
	.st4{fill-rule:evenodd;clip-rule:evenodd;fill:#FFFFFF;}
</style>
<g>
	<g id="XMLID_1_" class="st2">
		<path id="XMLID_10_" class="st3" d="M99.64,198.59L99.64,198.59c-54.63,0-98.91-44.28-98.91-98.91l0,0
			c0-54.63,44.28-98.91,98.91-98.91l0,0c54.63,0,98.91,44.28,98.91,98.91l0,0C198.55,154.31,154.26,198.59,99.64,198.59z"/>
	</g>
	<path class="st4" d="M143.94,38.81c-0.36,10.99-0.71,21.98-1.07,32.97c-2.23-0.09-4.47-0.18-6.7-0.27
		c-0.77-7-3.98-18.69-8.85-21.98c-2.91-1.97-38.55-2.22-44.5-1.07c-0.09,15.01-0.18,30.02-0.27,45.03c7.35,0,27.01,0.56,30.02-3.22
		c1.43-5,2.86-10.01,4.29-15.01c2.23,0,4.47,0,6.7,0c-0.36,5.99-0.71,11.97-1.07,17.96c0.18,7.77,0.36,15.55,0.54,23.32
		c-2.32,0-4.65,0-6.97,0c-2.58-19.57-12.6-16.69-33.51-16.35c-0.09,10.3-2.18,40.37,3.22,44.23c3.85,2.75,12.38,1.88,18.76,1.88
		c22.27,0,28.13,0.72,35.11-15.28c1.61-3.48,3.22-6.97,4.82-10.45c1.97,0,3.93,0,5.9,0c-1.34,11.44-2.68,22.88-4.02,34.31
		c-31.9-0.02-66.21-0.03-98.11,0c0-2.14,0-4.29,0-6.43c4.43-0.43,12.7-1.76,14.74-4.82c2.26-3.4,0.33-10.1,1.07-15.01
		c0.09-6.16,0.18-12.33,0.27-18.5c0-12.33,0-24.66,0-36.99c0-5.1,0.71-19.25-1.34-22.25c-2.11-3.09-10.59-3.65-14.74-4.56
		c0-2.14,0-4.29,0-6.43C79.18,41.33,114.64,40.79,143.94,38.81z"/>
</g>
</svg>
